<?xml version="1.0" encoding="UTF-8"?>
<svg width="1200pt" height="1200pt" version="1.1" viewBox="0 0 1200 1200" xmlns="http://www.w3.org/2000/svg">
 <path d="m545.58 682.55c4.9219 0 9.4219 3.0938 11.062 7.875l43.359 125.11 43.359-125.11c1.9219-5.4844 7.5469-8.7656 13.266-7.6875l130.08 24.984-86.719-100.12c-3.7969-4.4062-3.7969-10.922 0-15.375l86.719-100.12-130.08 25.031c-5.7188 1.0781-11.391-2.1562-13.266-7.6875l-43.359-125.11-43.359 125.11c-1.9219 5.5312-7.5469 8.8125-13.266 7.6875l-130.08-25.031 86.719 100.12c3.7969 4.4062 3.7969 10.969 0 15.375l-86.719 100.12 130.08-24.984c0.75-0.14062 1.5-0.23438 2.2031-0.23438zm54.422 180.52c-4.9688 0-9.4219-3.1406-11.062-7.875l-51.141-147.47-153.32 29.484c-4.9219 0.9375-9.8438-1.3594-12.375-5.6719-2.4844-4.3125-1.9688-9.75 1.3125-13.547l102.23-118.03-102.19-118.03c-3.2812-3.75-3.7969-9.1875-1.3125-13.547 2.4844-4.3125 7.4531-6.6094 12.375-5.625l153.32 29.484 51.141-147.47c1.6406-4.7344 6.0938-7.875 11.062-7.875s9.4219 3.1875 11.062 7.875l51.141 147.47 153.32-29.484c4.9219-0.9375 9.8906 1.3125 12.375 5.625s1.9688 9.75-1.3125 13.547l-102.23 118.03 102.23 118.03c3.2812 3.7969 3.7969 9.1875 1.3125 13.547-2.4844 4.3125-7.4531 6.6094-12.375 5.6719l-153.32-29.484-51.141 147.47c-1.6406 4.7344-6.0938 7.875-11.062 7.875z" fill-rule="evenodd"/>
 <path d="m600 441.52c-87.422 0-158.48 71.109-158.48 158.48 0 87.422 71.109 158.48 158.48 158.48s158.48-71.109 158.48-158.48c0-87.422-71.109-158.48-158.48-158.48zm0 340.45c-100.31 0-181.92-81.609-181.92-181.92 0-100.31 81.609-181.92 181.92-181.92 100.31 0 181.92 81.609 181.92 181.92 0 100.31-81.609 181.92-181.92 181.92z" fill-rule="evenodd"/>
 <path d="m600 360.32c-132.14 0-239.68 107.53-239.68 239.68s107.53 239.63 239.68 239.63 239.68-107.48 239.68-239.63-107.53-239.68-239.68-239.68zm0 502.78c-145.08 0-263.11-118.03-263.11-263.11s118.03-263.11 263.11-263.11 263.11 118.03 263.11 263.11-118.03 263.11-263.11 263.11z" fill-rule="evenodd"/>
 <path d="m159.14 86.672v1026.6h881.72v-1026.6zm881.72 1050h-881.72c-12.938 0-23.438-10.5-23.438-23.438v-1026.6c0-12.938 10.5-23.438 23.438-23.438h881.72c12.938 0 23.438 10.5 23.438 23.438v1026.6c0 12.938-10.5 23.438-23.438 23.438z" fill-rule="evenodd"/>
 <path d="m234.42 1038h731.16v-876.1h-731.16zm742.87 23.438h-754.6c-6.4688 0-11.719-5.25-11.719-11.719v-899.53c0-6.4688 5.25-11.719 11.719-11.719h754.6c6.4688 0 11.719 5.25 11.719 11.719v899.53c0 6.4688-5.25 11.719-11.719 11.719z" fill-rule="evenodd"/>
 <path d="m977.29 319.92c-3 0-6-1.125-8.2969-3.4219l-157.97-157.97c-4.5938-4.5469-4.5938-12 0-16.594 4.5938-4.5469 12-4.5469 16.594 0l157.97 157.97c4.5938 4.5938 4.5938 12 0 16.594-2.2969 2.2969-5.2969 3.4219-8.2969 3.4219z" fill-rule="evenodd"/>
 <path d="m222.71 319.92c-3 0-6-1.125-8.2969-3.4219-4.5938-4.5469-4.5938-12 0-16.594l157.97-157.97c4.5938-4.5469 12-4.5469 16.594 0 4.5938 4.5938 4.5938 12 0 16.594l-157.97 157.97c-2.2969 2.2969-5.2969 3.4219-8.2969 3.4219z" fill-rule="evenodd"/>
 <path d="m819.32 1061.5c-3 0-6-1.125-8.2969-3.4219-4.5938-4.5469-4.5938-12 0-16.594l157.97-157.97c4.5938-4.5469 12-4.5469 16.594 0 4.5938 4.5938 4.5938 12 0 16.594l-157.97 157.97c-2.2969 2.2969-5.2969 3.4219-8.2969 3.4219z" fill-rule="evenodd"/>
 <path d="m380.68 1061.5c-3 0-6-1.125-8.2969-3.4219l-157.97-157.97c-4.5938-4.5469-4.5938-12 0-16.594 4.5938-4.5469 12-4.5469 16.594 0l157.97 157.97c4.5938 4.5938 4.5938 12 0 16.594-2.2969 2.2969-5.2969 3.4219-8.2969 3.4219z" fill-rule="evenodd"/>
 <path d="m413.53 970.4h372.94l111.47-111.47v-517.82l-111.47-111.52h-372.94l-111.47 111.52v517.82zm377.76 23.438h-382.64c-3.0938 0-6.0938-1.2188-8.2969-3.4219l-118.36-118.36c-2.2031-2.2031-3.4219-5.1562-3.4219-8.2969v-527.53c0-3.0938 1.2188-6.0938 3.4219-8.2969l118.36-118.36c2.2031-2.2031 5.1562-3.4219 8.2969-3.4219h382.64c3.0938 0 6.0938 1.2656 8.2969 3.4219l118.36 118.36c2.2031 2.2031 3.4219 5.1562 3.4219 8.2969v527.53c0 3.1406-1.2188 6.0938-3.4219 8.2969l-118.36 118.36c-2.2031 2.2031-5.1562 3.4219-8.2969 3.4219z" fill-rule="evenodd"/>
 <path d="m753.24 311.58 11.766 7.8281c1.2656 0.84375 2.3906 1.9688 3.2344 3.2344l7.8281 11.766 7.8281-11.766c0.84375-1.2656 1.9688-2.3906 3.2344-3.2344l11.766-7.8281-11.766-7.8281c-1.2656-0.84375-2.3906-1.9688-3.2344-3.2344l-7.8281-11.766-7.8281 11.766c-0.84375 1.3125-1.9688 2.3906-3.2344 3.2344zm22.828 55.688c-3.9375 0-7.5938-1.9688-9.75-5.2031l-16.266-24.422-24.422-16.312c-3.2812-2.1562-5.2031-5.8125-5.2031-9.75 0-3.8906 1.9688-7.5469 5.2031-9.75l24.422-16.266 16.266-24.422c2.1562-3.2812 5.8125-5.2031 9.75-5.2031s7.5938 1.9688 9.75 5.2031l16.266 24.422 24.422 16.266c3.2812 2.1562 5.2031 5.8125 5.2031 9.75s-1.9688 7.5469-5.2031 9.75l-24.422 16.312-16.266 24.422c-2.1562 3.2812-5.8125 5.2031-9.75 5.2031z" fill-rule="evenodd"/>
 <path d="m401.06 311.58 11.766 7.8281c1.3125 0.84375 2.3906 1.9688 3.2344 3.2344l7.8281 11.766 7.8281-11.766c0.84375-1.2656 1.9688-2.3906 3.2344-3.2344l11.766-7.8281-11.766-7.8281c-1.2656-0.84375-2.3906-1.9688-3.2344-3.2344l-7.8281-11.766-7.8281 11.766c-0.84375 1.3125-1.9688 2.3906-3.2344 3.2344zm22.828 55.688c-3.9375 0-7.5938-1.9688-9.75-5.2031l-16.266-24.422-24.422-16.312c-3.2812-2.1562-5.2031-5.8125-5.2031-9.75 0-3.8906 1.9688-7.5469 5.2031-9.75l24.422-16.266 16.266-24.422c2.1562-3.2812 5.8125-5.2031 9.75-5.2031s7.5938 1.9688 9.75 5.2031l16.266 24.422 24.422 16.266c3.2812 2.1562 5.2031 5.8125 5.2031 9.75s-1.9688 7.5469-5.2031 9.75l-24.422 16.312-16.266 24.422c-2.1562 3.2812-5.8125 5.2031-9.75 5.2031z" fill-rule="evenodd"/>
 <path d="m753.24 888.42 11.766 7.8281c1.2656 0.89062 2.3906 1.9688 3.2344 3.2812l7.8281 11.766 7.8281-11.766c0.84375-1.3125 1.9688-2.3906 3.2344-3.2812l11.766-7.8281-11.766-7.8281c-1.2656-0.84375-2.3906-1.9688-3.2344-3.2344l-7.8281-11.766-7.8281 11.766c-0.84375 1.3125-1.9688 2.3906-3.2344 3.2344zm22.828 55.688c-3.9375 0-7.5938-1.9688-9.75-5.2031l-16.266-24.422-24.422-16.266c-3.2812-2.1562-5.2031-5.8125-5.2031-9.75 0-3.8906 1.9688-7.5469 5.2031-9.75l24.422-16.266 16.266-24.422c2.1562-3.2344 5.8125-5.2031 9.75-5.2031s7.5938 1.9688 9.75 5.2031l16.266 24.422 24.422 16.266c3.2812 2.1562 5.2031 5.8125 5.2031 9.75s-1.9688 7.5938-5.2031 9.75l-24.422 16.266-16.266 24.422c-2.1562 3.2344-5.8125 5.2031-9.75 5.2031z" fill-rule="evenodd"/>
 <path d="m401.06 888.42 11.766 7.8281c1.3125 0.89062 2.3906 1.9688 3.2344 3.2812l7.8281 11.766 7.8281-11.766c0.84375-1.3125 1.9688-2.3906 3.2344-3.2812l11.766-7.8281-11.766-7.8281c-1.2656-0.84375-2.3906-1.9688-3.2344-3.2344l-7.8281-11.766-7.8281 11.766c-0.84375 1.3125-1.9688 2.3906-3.2344 3.2344zm22.828 55.688c-3.9375 0-7.5938-1.9688-9.75-5.2031l-16.266-24.422-24.422-16.266c-3.2812-2.1562-5.2031-5.8125-5.2031-9.75 0-3.8906 1.9688-7.5469 5.2031-9.75l24.422-16.266 16.266-24.422c2.1562-3.2344 5.8125-5.2031 9.75-5.2031s7.5938 1.9688 9.75 5.2031l16.266 24.422 24.422 16.266c3.2812 2.1562 5.2031 5.8125 5.2031 9.75s-1.9688 7.5938-5.2031 9.75l-24.422 16.266-16.266 24.422c-2.1562 3.2344-5.8125 5.2031-9.75 5.2031z" fill-rule="evenodd"/>
</svg>
